<svg viewBox="0 0 1639.99 370.53" xmlns="http://www.w3.org/2000/svg">
  <path d="m140.09,7.05c22.69-10.05,45.57-9.4,66.98,2.23,33.11,17.99,65.87,36.74,97.9,56.58,24.05,14.9,36.22,37.82,36.5,66.44.15,15.58-.12,31.17-.19,46.75-3.35,7.66-7.86,14.73-13.64,20.59-27.99,28.4-56.12,56.67-84.57,84.62-14.88,14.62-33.15,13.86-48.03-1.01-10.26-10.25-20.53-20.49-30.74-30.78-1.58-1.6-6.56-4.34-6.12-7.21,9.24,2.6,21.09,4.36,28.37-2.78,15.2-14.88,30.77-29.41,44.78-45.46.34-.54.69-1.08,1.03-1.62l-.16-.03c1.68.39,2.39-2.78,3.49-3.87,11.48-11.49,21.82-19.39,32.8-31.34,13.12-14.28,14.25-32.94.63-46.56-30.07-30.09-60.34-59.96-90.12-90.33-10.92-11.14-23.76-16.05-38.91-16.21Z" fill="#533aed" />
  <path d="m103.84,178.72c-9.85,9.77-19.17,20.15-29.57,29.29-15.79,13.87-16.76,35.74-.06,52.06,29.46,28.81,58.36,58.19,87.52,87.32,1.65,1.65,3.44,3.17,5.23,4.67,9.65,8.13,21.21,11.2,33.42,12.52-23.2,8.93-46.1,7.97-67.73-4.07-31.6-17.59-63.03-35.54-93.91-54.35C13.45,290.76.48,267.49.33,237.58c-.08-14.94.12-29.88.19-44.82,4.38-9.85,10.83-18.1,18.5-25.68,26.86-26.54,53.45-53.36,80.17-80.04,13.15-13.13,29.45-14.82,43.5-2.68,13.36,11.55,25.29,24.74,37.8,37.27.5.5,3.08,3.36,3.28,4.16-10.01-2.75-22.16-4.2-29.96,3.6-14.33,14.33-28.48,28.85-42.7,43.28" fill="#3927af" />
  <path class="cls-6" d="m158.18,245.26c-14.21-14.07-28.44-28.12-42.64-42.21-7.97-7.91-9.1-17.32-5.92-27.64-.03-.56,2.13-3,1.5-2.75-1.47.58-6.16,4.95-7.28,6.06-9.85,9.77-19.17,20.15-29.57,29.29-15.79,13.87-16.76,35.74-.06,52.06,29.46,28.81,58.36,58.19,87.52,87.32,1.65,1.65,3.44,3.17,5.23,4.67,9.65,8.13,21.21,11.2,33.42,12.52,1.56-.64,3.19-1.15,4.66-1.96,34.42-19.03,68.76-38.26,102.06-59.16,18.62-11.69,30.05-29.65,33.05-51.63,3.29-24.13.97-48.51,1.13-72.78-3.35,7.66-7.86,14.73-13.64,20.59-27.99,28.4-56.12,56.67-84.57,84.62-14.88,14.62-33.15,13.86-48.03-1.01-10.26-10.25-20.53-20.49-30.74-30.78l-6.12-7.21Z" fill="#462fd2" />
  <path d="m230.22,198.28c2.97-9.83,4.43-22.04-3.17-29.69-14.31-14.39-28.84-28.56-43.28-42.82l-3.14-3.97c-.1-.12-.2-.24-.31-.35-12.45-12.47-24.34-25.6-37.63-37.1-14.65-12.66-31.75-10.28-45.17,4.43-23.45,25.69-47.88,50.43-73.69,73.75-9.79,8.84-18.06,18.37-23.32,30.22-.05-22.79-1.27-45.64.22-68.33,1.54-23.53,14.26-44.9,34.3-57.31,33.06-20.48,67.19-39.23,100.89-58.67,2.7-1.26,5.03-1.93,6.1-2.24.49-.14,1-.21,1.5-.2,14.65.4,24.79,6.35,35.48,17.26,29.78,30.37,60.05,60.25,90.12,90.33,13.61,13.62,14.5,31.38,1.38,45.65" fill="#9584f7" />
  <path d="m428.58,181.12c0-51.5,42.79-91,95.55-91s95.55,39.5,95.55,91-42.79,91-95.55,91-95.55-39.5-95.55-91Zm149.1,0c0-31.25-23.62-52-53.55-52s-53.55,20.75-53.55,52,23.62,52,53.55,52,53.55-20.75,53.55-52Z" fill="#f5f5f5" />
  <path d="m697.64,143.62h24.41v36h-24.41v89h-39.37v-89h-17.59v-36h17.59c0-35,20.21-56,63.79-53.5v36c-14.7-1.25-24.41,3-24.41,17.5Z" fill="#f5f5f5" />
  <path d="m792.13,143.62h24.41v36h-24.41v89h-39.37v-89h-17.59v-36h17.59c0-35,20.21-56,63.79-53.5v36c-14.7-1.25-24.41,3-24.41,17.5Z" fill="#f5f5f5" />
  <path d="m834.92,110.12c0-12.25,10.76-22.5,23.62-22.5s23.62,10.25,23.62,22.5-10.76,22.5-23.62,22.5-23.62-10.25-23.62-22.5Zm3.94,33.5h39.38v125h-39.38v-125Z" fill="#f5f5f5" />
  <path d="m908.42,206.12c0-37.25,29.66-66,69.56-66,25.46,0,48.04,12.75,59.32,32l-34.39,19c-4.46-8.75-13.91-14-25.46-14-17.06,0-29.66,11.75-29.66,29s12.6,29,29.66,29c11.55,0,21.26-5.25,25.46-14l34.39,18.75c-11.29,19.5-33.6,32.25-59.32,32.25-39.9,0-69.56-28.75-69.56-66Z" fill="#f5f5f5" />
  <path d="m1058.3,110.12c0-12.25,10.76-22.5,23.62-22.5s23.62,10.25,23.62,22.5-10.76,22.5-23.62,22.5-23.62-10.25-23.62-22.5Zm3.94,33.5h39.37v125h-39.37v-125Z" fill="#f5f5f5" />
  <path d="m1131.8,206.12c0-37.25,30.97-66,69.56-66s69.56,28.75,69.56,66-30.97,66-69.56,66-69.56-28.75-69.56-66Zm99.75,0c0-17.75-13.12-29.5-30.19-29.5s-30.19,11.75-30.19,29.5,13.12,29.5,30.19,29.5,30.19-11.75,30.19-29.5Z" fill="#f5f5f5" />
  <path d="m1425.27,143.62v125h-39.38v-11.75c-7.09,9.25-20.21,15.25-37.54,15.25-26.51,0-49.09-18-49.09-51.75v-76.75h39.38v71.25c0,15.5,10.24,22.75,22.84,22.75,14.44,0,24.41-8,24.41-25.75v-68.25h39.38Z" fill="#f5f5f5" />
  <path d="m1563.87,231.12c0,28.75-26.25,41-54.6,41-26.25,0-46.2-9.5-56.44-29.75l34.12-18.5c3.41,9.5,10.76,14.75,22.31,14.75,9.45,0,14.17-2.75,14.17-7.75,0-13.75-64.57-6.5-64.57-49.75,0-27.25,24.15-41,51.45-41,21.26,0,40.16,9,51.19,26.75l-33.6,17.25c-3.67-6.5-8.92-11-17.59-11-6.82,0-11.02,2.5-11.02,7,0,14.25,64.57,4.75,64.57,51Z" fill="#f5f5f5" />
  <path d="m1590.12,248.37c0-13,11.29-23.75,24.94-23.75s24.94,10.75,24.94,23.75-11.29,23.75-24.94,23.75-24.94-10.75-24.94-23.75Z" fill="#9584f7" />
</svg>
